# xmcd
#
# Track frame offsets:
#	150
#	11722
#	22157
#	31545
#	43892
#	56500
#	67375
#	79672
#	90260
#	100772
#	112817
#	125792
#	135307
#	147272
#	161042
#
# Disc length: 2327 seconds
#
# Revision: 1
# Processed by: cddbd v1.5.1PL0 Copyright (c) Steve Scherf et al.
# Submitted via: audiograbber 1.83.01
#
DISCID=c509150f
DTITLE=Various Artist - Rockin' Rollin' Country Hits
DYEAR=1990
DGENRE=
TTITLE0=Joe Stampley - Roll On Big Mama
TTITLE1=George Jones and Johnny Paycheck - Maybellene
TTITLE2=Willie Nelson - If You've Got The Money I've Got The Time
TTITLE3=Johnny Cash - Jackson (With June Carter)
TTITLE4=Sonny James - In The Jailhouse Now
TTITLE5=Barbara Mandrell - Show Me
TTITLE6=Lynn Anderson - Listen To A Country Song
TTITLE7=Bobby Bare - Rock And Roll Hotel
TTITLE8=Carl Perkins  - Blue Suede Shoes
TTITLE9=Guy Mitchell - Heartaches By The Number
TTITLE10=Johnny Cash - I Will Rock And Roll With You
TTITLE11=Sid King and The Five Strings - Gonna Shake This Shack Tonight
TTITLE12=Joe Stampley - Sheik Of Chikago
TTITLE13=Mary Kay Place  - Baby Boy
TTITLE14=Jimmy Dean - Big Bad John
EXTD=CBS 467236 2
EXTT0=
EXTT1=
EXTT2=
EXTT3=
EXTT4=
EXTT5=
EXTT6=
EXTT7=
EXTT8=
EXTT9=
EXTT10=
EXTT11=
EXTT12=
EXTT13=
EXTT14=
PLAYORDER=
